<svg width="40" height="40" viewBox="0 0 40 40" fill="none" xmlns="http://www.w3.org/2000/svg">
<rect x="0.5" y="0.5" width="39" height="39" rx="7.5" stroke="#119933"/>
<path d="M23.975 13.9078L26.092 16.0248M25.336 12.0428L19.609 17.7698C19.3122 18.0647 19.1102 18.4414 19.029 18.8518L18.5 21.4998L21.148 20.9698C21.558 20.8878 21.934 20.6868 22.23 20.3908L27.957 14.6638C28.1291 14.4917 28.2656 14.2874 28.3588 14.0626C28.4519 13.8377 28.4998 13.5967 28.4998 13.3533C28.4998 13.1099 28.4519 12.8689 28.3588 12.6441C28.2656 12.4192 28.1291 12.2149 27.957 12.0428C27.7849 11.8707 27.5806 11.7342 27.3557 11.6411C27.1309 11.5479 26.8899 11.5 26.6465 11.5C26.4031 11.5 26.1621 11.5479 25.9373 11.6411C25.7124 11.7342 25.5081 11.8707 25.336 12.0428Z" stroke="#119933" stroke-width="2" stroke-linecap="round" stroke-linejoin="round"/>
<path d="M26.5 23.5V26.5C26.5 27.0304 26.2893 27.5391 25.9142 27.9142C25.5391 28.2893 25.0304 28.5 24.5 28.5H13.5C12.9696 28.5 12.4609 28.2893 12.0858 27.9142C11.7107 27.5391 11.5 27.0304 11.5 26.5V15.5C11.5 14.9696 11.7107 14.4609 12.0858 14.0858C12.4609 13.7107 12.9696 13.5 13.5 13.5H16.5" stroke="#119933" stroke-width="2" stroke-linecap="round" stroke-linejoin="round"/>
</svg>
